<svg id="Capa_1" enable-background="new 0 0 512 512" height="512" viewBox="0 0 512 512" width="512" xmlns="http://www.w3.org/2000/svg"><g><path d="m256 332c30.327 0 55-24.673 55-55s-24.673-55-55-55-55 24.673-55 55 24.673 55 55 55zm0-80c13.785 0 25 11.215 25 25s-11.215 25-25 25-25-11.215-25-25 11.215-25 25-25z"/><path d="m510.417 490.292-76.065-152.129c32.611-26.688 52.315-50.516 53.242-51.646 4.541-5.532 4.541-13.501 0-19.033-1.052-1.281-26.229-31.738-67.004-62.463-24.613-18.547-49.672-33.146-74.616-43.612l-76.557-153.117c-2.542-5.082-7.735-8.292-13.417-8.292s-10.875 3.21-13.417 8.292l-76.558 153.116c-24.944 10.466-50.002 25.065-74.616 43.612-40.774 30.725-65.952 61.182-67.004 62.463-4.541 5.532-4.541 13.501 0 19.033.928 1.13 20.631 24.958 53.242 51.646l-76.064 152.13c-2.325 4.649-2.076 10.172.657 14.594 2.733 4.423 7.561 7.114 12.76 7.114h482c5.199 0 10.027-2.691 12.76-7.114 2.733-4.422 2.981-9.945.657-14.594zm-138.149-281.817c10.97 6.621 20.95 13.509 29.701 20.078 24.837 18.646 43.734 37.503 53.942 48.447-10.208 10.944-29.105 29.802-53.942 48.447-8.755 6.572-18.74 13.463-29.716 20.086 11.897-20.102 18.747-43.529 18.747-68.533 0-24.999-6.839-48.427-18.732-68.525zm-116.268-159.934 49.789 99.578c-16.85-4.051-33.507-6.119-49.789-6.119s-32.939 2.068-49.789 6.119zm0 123.459c57.897 0 105 47.103 105 105s-47.103 105-105 105-105-47.103-105-105 47.103-105 105-105zm-199.911 105c10.208-10.944 29.105-29.802 53.942-48.447 8.757-6.574 18.744-13.466 29.723-20.09-11.899 20.104-18.754 43.53-18.754 68.537 0 25.008 6.856 48.435 18.757 68.54-10.98-6.625-20.968-13.518-29.726-20.092-24.837-18.646-43.736-37.506-53.942-48.448zm-16.818 205 62.672-125.345c51.451 36.251 104.485 55.345 154.057 55.345s102.606-19.094 154.057-55.345l62.672 125.345z"/></g></svg>